<svg width="36" height="40" viewBox="0 0 36 40" fill="none" xmlns="http://www.w3.org/2000/svg">
<path fill-rule="evenodd" clip-rule="evenodd" d="M19.0606 7.00838C19.0606 6.12606 18.8552 5.25586 18.4605 4.46668C18.1194 3.78452 17.9192 3.04069 17.8716 2.27949L17.7575 0.45459L17.6435 2.27943C17.5959 3.04063 17.3956 3.78448 17.0545 4.46665C16.66 5.25585 16.4545 6.12608 16.4545 7.00842V32.9917C16.4545 33.874 16.66 34.7442 17.0545 35.5335C17.3956 36.2156 17.5959 36.9595 17.6435 37.7207L17.7575 39.5455L17.8716 37.7206C17.9192 36.9594 18.1194 36.2156 18.4605 35.5334C18.8552 34.7442 19.0606 33.8741 19.0606 32.9917V7.00838ZM11.9454 7.07274C12.34 7.86192 12.5454 8.73217 12.5454 9.61449V30.3856C12.5454 31.268 12.34 32.1382 11.9454 32.9274C11.6043 33.6095 11.404 34.3534 11.3564 35.1145L11.2424 36.9394L11.1284 35.1145C11.0807 34.3534 10.8805 33.6095 10.5394 32.9274C10.1447 32.1382 9.93935 31.268 9.93935 30.3856V9.61449C9.93935 8.73217 10.1447 7.86192 10.5394 7.07274C10.8805 6.39057 11.0807 5.64673 11.1284 4.88553L11.2424 3.06066L11.3564 4.88553C11.404 5.64673 11.6043 6.39057 11.9454 7.07274ZM9.28784 12.2205C9.28784 11.3382 9.08245 10.468 8.68779 9.67882C8.34672 8.9966 8.14644 8.25278 8.09886 7.49157L7.98481 5.6667L7.87075 7.49157C7.82317 8.25278 7.62288 8.9966 7.2818 9.67882C6.88721 10.468 6.68178 11.3382 6.68178 12.2205V27.7795C6.68178 28.6619 6.88721 29.5321 7.2818 30.3213C7.62288 31.0035 7.82317 31.7473 7.87075 32.5085L7.98481 34.3334L8.09886 32.5085C8.14644 31.7473 8.34672 31.0035 8.68779 30.3213C9.08245 29.5321 9.28784 28.6619 9.28784 27.7795V12.2205ZM5.43024 14.8909C5.82483 15.6801 6.03026 16.5503 6.03026 17.4327V22.5674C6.03026 23.4497 5.82483 24.32 5.43024 25.1091C5.08916 25.7914 4.88886 26.5352 4.84129 27.2964L4.72723 29.1213L4.61318 27.2964C4.5656 26.5352 4.36531 25.7914 4.02422 25.1091C3.62963 24.32 3.4242 23.4497 3.4242 22.5674V17.4327C3.4242 16.5503 3.62963 15.6801 4.02422 14.8909C4.36531 14.2087 4.5656 13.4649 4.61318 12.7037L4.72723 10.8788L4.84129 12.7037C4.88886 13.4649 5.08916 14.2087 5.43024 14.8909ZM2.77256 20L2.77269 20.0387V19.9614L2.77256 20ZM0.166626 20.0387L0.166757 20C0.172668 20.8692 0.37782 21.7255 0.766648 22.5031C1.10773 23.1853 1.30802 23.9291 1.3556 24.6903L1.46966 26.5152L1.58371 24.6903C1.63129 23.9291 1.83158 23.1853 2.17267 22.5031C2.56149 21.7255 2.76664 20.8692 2.77256 20C2.76664 19.1309 2.56149 18.2746 2.17267 17.497C1.83158 16.8148 1.63129 16.071 1.58371 15.3098L1.46966 13.4849L1.3556 15.3098C1.30802 16.071 1.10773 16.8148 0.766648 17.497C0.37782 18.2746 0.172668 19.1309 0.166757 20L0.166626 19.9614V20.0387ZM15.2029 4.46667C15.5976 5.25585 15.803 6.12607 15.803 7.0084V32.9917C15.803 33.8741 15.5976 34.7442 15.2029 35.5334C14.8619 36.2156 14.6616 36.9594 14.614 37.7206L14.5 39.5455L14.3859 37.7206C14.3383 36.9594 14.138 36.2156 13.797 35.5334C13.4023 34.7442 13.1969 33.8741 13.1969 32.9917V7.0084C13.1969 6.12607 13.4023 5.25585 13.797 4.46667C14.138 3.7845 14.3383 3.04066 14.3859 2.27946L14.5 0.45459L14.614 2.27946C14.6616 3.04066 14.8619 3.7845 15.2029 4.46667ZM21.7181 4.46667C22.1127 5.25585 22.3181 6.12607 22.3181 7.0084V32.9917C22.3181 33.8741 22.1127 34.7442 21.7181 35.5334C21.377 36.2156 21.1768 36.9594 21.1291 37.7206L21.0151 39.5455L20.9011 37.7206C20.8535 36.9594 20.6532 36.2156 20.3121 35.5334C19.9175 34.7442 19.7121 33.8741 19.7121 32.9917V7.0084C19.7121 6.12607 19.9175 5.25585 20.3121 4.46667C20.6532 3.7845 20.8535 3.04066 20.9011 2.27946L21.0151 0.45459L21.1291 2.27946C21.1768 3.04066 21.377 3.7845 21.7181 4.46667ZM25.5757 9.61449C25.5757 8.73217 25.3703 7.86192 24.9757 7.07274C24.6346 6.39057 24.4343 5.64673 24.3867 4.88553L24.2727 3.06066L24.1587 4.88553C24.111 5.64673 23.9108 6.39057 23.5697 7.07274C23.175 7.86192 22.9697 8.73217 22.9697 9.61449V30.3856C22.9697 31.268 23.175 32.1382 23.5697 32.9274C23.9108 33.6095 24.111 34.3534 24.1587 35.1145L24.2727 36.9394L24.3867 35.1145C24.4343 34.3534 24.6346 33.6095 24.9757 32.9274C25.3703 32.1382 25.5757 31.268 25.5757 30.3856V9.61449ZM28.2332 9.67882C28.6279 10.468 28.8333 11.3382 28.8333 12.2205V27.7795C28.8333 28.6619 28.6279 29.5321 28.2332 30.3213C27.8922 31.0035 27.6919 31.7473 27.6443 32.5085L27.5303 34.3334L27.4162 32.5085C27.3686 31.7473 27.1683 31.0035 26.8273 30.3213C26.4327 29.5321 26.2272 28.6619 26.2272 27.7795V12.2205C26.2272 11.3382 26.4327 10.468 26.8273 9.67882C27.1683 8.9966 27.3686 8.25278 27.4162 7.49157L27.5303 5.6667L27.6443 7.49157C27.6919 8.25278 27.8922 8.9966 28.2332 9.67882ZM32.0909 17.4327C32.0909 16.5503 31.8855 15.6801 31.4908 14.8909C31.1498 14.2087 30.9495 13.4649 30.9019 12.7037L30.7878 10.8788L30.6738 12.7037C30.6262 13.4649 30.4259 14.2087 30.0849 14.8909C29.6903 15.6801 29.4848 16.5503 29.4848 17.4327V22.5674C29.4848 23.4497 29.6903 24.32 30.0849 25.1091C30.4259 25.7914 30.6262 26.5352 30.6738 27.2964L30.7878 29.1213L30.9019 27.2964C30.9495 26.5352 31.1498 25.7914 31.4908 25.1091C31.8855 24.32 32.0909 23.4497 32.0909 22.5674V17.4327ZM35.3483 20C35.3484 20.0129 35.3484 20.0258 35.3484 20.0387V19.9614C35.3484 19.9743 35.3484 19.9872 35.3483 20ZM32.7425 20C32.7484 20.8692 32.9536 21.7255 33.3424 22.5031C33.6835 23.1853 33.8838 23.9291 33.9314 24.6903L34.0454 26.5152L34.1594 24.6903C34.2071 23.9291 34.4073 23.1853 34.7484 22.5031C35.1373 21.7255 35.3424 20.8692 35.3483 20C35.3424 19.1309 35.1373 18.2746 34.7484 17.497C34.4073 16.8148 34.2071 16.071 34.1594 15.3098L34.0454 13.4849L33.9314 15.3098C33.8838 16.071 33.6835 16.8148 33.3424 17.497C32.9536 18.2746 32.7484 19.1309 32.7425 20ZM32.7425 20C32.7425 19.9872 32.7424 19.9743 32.7424 19.9614V20.0387C32.7424 20.0258 32.7425 20.0129 32.7425 20Z" fill="#394149"/>
</svg>
