<svg width="41" height="26" viewBox="0 0 41 26" fill="none" xmlns="http://www.w3.org/2000/svg">
<g clip-path="url(#clip0_21_1557)">
<path d="M37.6105 3.51926C37.6105 3.54858 37.6105 3.58522 37.603 3.60721C37.5655 3.89305 37.5655 4.17888 37.588 4.47205C37.603 4.54534 37.618 4.61863 37.678 4.67726C37.7754 4.78719 37.9253 4.76521 37.9853 4.63329C38.0153 4.56733 38.0153 4.50136 38.0003 4.4354C37.9253 4.15689 37.9103 3.86373 37.9028 3.57789C37.9028 3.56323 37.9028 3.54125 37.9028 3.51926C37.9853 3.51193 38.0603 3.5046 38.1277 3.5046C38.1802 3.49727 38.2252 3.48994 38.2627 3.46795C38.3751 3.40933 38.3751 3.28473 38.2551 3.2261C38.2102 3.20411 38.1502 3.19678 38.0978 3.19678C37.9103 3.20411 37.723 3.20411 37.5355 3.20411C37.4681 3.20411 37.4006 3.21144 37.3331 3.21877C37.2956 3.2261 37.2507 3.2261 37.2207 3.24809C37.1682 3.27007 37.1383 3.30671 37.1383 3.35802C37.1458 3.40933 37.1682 3.43864 37.2207 3.46063C37.2507 3.48262 37.2882 3.48994 37.3256 3.48994C37.4156 3.49727 37.5131 3.51193 37.6105 3.51926ZM39.6719 3.8564C39.6719 3.86373 39.6794 3.87106 39.6794 3.87106C39.7094 4.06894 39.7394 4.2595 39.7618 4.45006C39.7694 4.51602 39.7768 4.57465 39.8218 4.62595C39.9192 4.75055 40.0692 4.73589 40.1366 4.60397C40.1666 4.53801 40.1741 4.47205 40.1591 4.39875C40.1142 4.17888 40.0916 3.95901 40.0467 3.74646C40.0167 3.61454 39.9792 3.48994 39.9418 3.37268C39.9192 3.29939 39.8668 3.24808 39.7768 3.24075C39.6869 3.2261 39.6194 3.27007 39.5819 3.33603C39.537 3.39466 39.4995 3.4533 39.4695 3.51926C39.417 3.63653 39.372 3.75379 39.3121 3.86373C39.3046 3.89305 39.2971 3.91503 39.2821 3.93702C39.2746 3.92236 39.2671 3.91503 39.2671 3.91503C39.1696 3.73181 39.0797 3.54858 38.9823 3.37268C38.9672 3.35802 38.9598 3.34336 38.9523 3.3287C38.9073 3.26274 38.8548 3.2261 38.7724 3.2261C38.6974 3.23342 38.6374 3.2774 38.6 3.34336C38.585 3.37268 38.585 3.39466 38.5775 3.42398C38.5475 3.65851 38.51 3.89305 38.48 4.12758C38.465 4.2595 38.4575 4.39142 38.4575 4.52335C38.45 4.55266 38.4575 4.58931 38.4725 4.61863C38.4875 4.67726 38.5325 4.71391 38.5924 4.72123C38.6674 4.72857 38.7199 4.70658 38.7424 4.64794C38.7648 4.60397 38.7724 4.56733 38.7799 4.53068C38.8099 4.39875 38.8323 4.27416 38.8548 4.14957C38.8698 4.07627 38.8773 4.01764 38.8998 3.93702C38.9148 3.96634 38.9298 3.98833 38.9448 4.01031C39.0122 4.09826 39.0797 4.18621 39.1622 4.2595C39.2446 4.31813 39.3121 4.31081 39.3795 4.24484C39.3946 4.23018 39.402 4.22286 39.417 4.20819C39.4845 4.10559 39.567 4.00298 39.6344 3.90037C39.6494 3.88571 39.6569 3.87106 39.6719 3.8564Z" fill="black"/>
<path d="M22.4002 3.66309C22.348 3.80238 22.3381 3.90273 22.3622 3.98613C22.3887 4.09955 22.4577 4.13668 22.5513 4.10784C23.4318 3.89496 25.3624 4.49919 26.0772 4.6676C26.2458 4.70296 26.383 4.49018 26.2679 4.29942C26.1 4.11468 24.1702 3.32372 23.4339 3.2806C23.1452 3.26465 22.6292 3.19228 22.4002 3.66309Z" fill="black"/>
<path d="M29.9456 1.10279C30.0395 1.15575 30.0919 1.20626 30.1178 1.2627C30.1564 1.33674 30.136 1.38796 30.0712 1.4141C29.4892 1.69182 28.7148 2.88749 28.4022 3.29986C28.3264 3.39472 28.1516 3.33959 28.1252 3.18359C28.1306 3.00721 28.8171 1.70965 29.2003 1.35623C29.3508 1.21825 29.5996 0.947513 29.9456 1.10279Z" fill="black"/>
<path d="M25.3108 0.514309C25.4235 0.431236 25.5407 0.402125 25.6005 0.456112C26.4786 1.19037 26.9443 2.35313 27.2326 3.41761C27.2435 3.44241 27.2442 3.478 27.2355 3.51512C27.2319 3.54685 27.2082 3.58037 27.1705 3.60631C27.1303 3.63495 27.0957 3.64367 27.0794 3.61899C26.6945 3.10718 24.4964 1.11581 25.3108 0.514309Z" fill="black"/>
<path d="M6.71577 13.2447C6.92623 13.0915 7.15503 12.964 7.39714 12.865C7.65045 12.7942 7.92045 12.8059 8.16634 12.8985C8.41217 12.9911 8.62057 13.1594 8.75988 13.378C8.88451 13.596 8.93326 13.8478 8.89886 14.0954C8.86446 14.3428 8.74874 14.5727 8.56908 14.7504C8.42983 14.8944 8.27171 15.0198 8.09897 15.1235C7.32903 15.6098 6.55223 16.0695 5.77547 16.5558C5.61652 16.6775 5.44791 16.7867 5.27124 16.8823C5.00252 17.0133 4.69541 17.0484 4.40301 16.9815C4.11063 16.9146 3.85135 16.7499 3.67001 16.5159C3.53445 16.3502 3.42004 16.169 3.32932 15.9762C2.59343 14.4639 1.83029 12.9583 1.12166 11.4193C0.794597 10.7531 0.528862 9.98695 0.269939 9.24747C0.157917 9.03261 0.136042 8.78352 0.208971 8.55312C0.2819 8.32272 0.44388 8.12924 0.660455 8.01381C0.877032 7.89838 1.13111 7.87015 1.36867 7.93507C1.60622 7.99998 1.80851 8.15295 1.93249 8.36141C2.31361 8.85661 2.65097 9.38261 2.94093 9.93369C3.67682 11.2661 4.37864 12.5985 5.08727 13.891C5.12853 13.9624 5.17403 14.0313 5.22355 14.0975C5.75691 13.8782 6.25857 13.5915 6.71577 13.2447Z" fill="black"/>
<path d="M14.3244 12.7799C12.6414 14.7052 9.8205 14.2189 8.40324 11.7406C7.39478 9.98179 7.21764 7.07711 9.4117 5.24503C9.88021 4.86147 10.4404 4.60019 11.0402 4.48555C11.7755 4.38248 12.5253 4.50931 13.1824 4.84793C13.8396 5.18655 14.3704 5.7196 14.6992 6.37093C15.8984 8.50282 15.728 11.2209 14.3244 12.7799ZM13.643 8.28962C13.4642 7.76573 13.1055 7.31848 12.6278 7.02379C12.3574 6.83539 12.0289 6.74379 11.6976 6.76442C11.3662 6.78505 11.0523 6.91665 10.8085 7.13705C9.83415 7.98316 9.6297 9.98848 10.3383 11.181C10.4287 11.3754 10.5613 11.5482 10.7271 11.6873C10.8928 11.8264 11.0877 11.9284 11.298 11.9861C11.5083 12.0439 11.7289 12.056 11.9445 12.0217C12.1601 11.9873 12.3654 11.9073 12.546 11.7872C13.0742 11.3868 13.4617 10.8355 13.6546 10.2099C13.8476 9.58425 13.8364 8.91539 13.6226 8.29631L13.643 8.28962Z" fill="black"/>
<path d="M21.1926 9.12862C21.0203 9.16485 20.8423 9.16702 20.6691 9.13497C20.496 9.10291 20.3311 9.03737 20.1842 8.94211C20.0557 8.87022 19.9451 8.77142 19.8603 8.65274C19.7755 8.53405 19.7187 8.39851 19.694 8.25577C19.6692 8.11308 19.6771 7.9668 19.7171 7.82742C19.7571 7.68805 19.8282 7.55908 19.9253 7.44977C20.0945 7.23011 20.3346 7.07285 20.6067 7.00342C21.3171 6.80182 22.0485 6.67891 22.7871 6.63702C22.9494 6.61857 23.1138 6.632 23.2706 6.67651C23.4275 6.72108 23.5737 6.79577 23.7007 6.89634C23.8276 6.99685 23.9327 7.1212 24.0099 7.262C24.087 7.4028 24.1346 7.55725 24.1498 7.71628C24.3627 8.49742 24.3861 9.31645 24.2179 10.108C23.6047 12.6662 21.4925 13.5456 19.1213 12.7262C18.4557 12.5071 17.8721 12.0989 17.4451 11.5537C16.8756 10.8971 16.4718 10.119 16.2663 9.28188C16.0998 8.53645 16.118 7.76297 16.3195 7.02588C16.521 6.28879 16.8999 5.60951 17.4246 5.04477C17.9226 4.43096 18.5689 3.94789 19.3053 3.63906C19.7706 3.38829 20.3151 3.31698 20.8315 3.4392C20.9487 3.4709 21.055 3.53267 21.1395 3.6181C21.2241 3.70354 21.2837 3.80953 21.3122 3.92508C21.3407 4.04062 21.337 4.16152 21.3017 4.27523C21.2662 4.38894 21.2004 4.49132 21.1109 4.57176C20.9407 4.72236 20.7559 4.85624 20.559 4.97148C19.9532 5.34866 19.4261 5.83469 19.0054 6.40382C18.7297 6.77211 18.5398 7.19502 18.4492 7.64274C18.3585 8.09045 18.3693 8.55217 18.4808 8.99542C18.6353 9.59977 18.9782 10.1422 19.4619 10.5477C20.961 11.8801 22.9097 10.5943 22.569 8.77554C22.0717 8.89548 21.6355 9.02205 21.1926 9.12862Z" fill="black"/>
<path d="M30.3504 12.8862C28.136 14.2186 25.6149 12.8862 25.063 10.0881C24.661 8.08948 25.4241 5.29138 28.0951 4.22544C28.6634 4.00353 29.2798 3.92561 29.8871 3.99893C30.6168 4.12953 31.2862 4.48075 31.8008 5.00307C32.3154 5.52539 32.6495 6.19245 32.7557 6.91028C33.2054 9.28863 32.1834 11.8269 30.3504 12.8862ZM31.1204 8.40257C31.1198 7.84914 30.9195 7.3136 30.5549 6.89028C30.36 6.62845 30.0782 6.44085 29.7576 6.35943C29.437 6.27805 29.0975 6.30788 28.7969 6.44394C27.5977 6.95023 26.7528 8.78897 27.0594 10.1414C27.0828 10.3537 27.1534 10.5583 27.2661 10.7411C27.3788 10.9239 27.5311 11.0805 27.7122 11.1998C27.8932 11.319 28.0987 11.3982 28.3143 11.4318C28.53 11.4653 28.7505 11.4523 28.9604 11.3939C29.5943 11.1774 30.1432 10.7727 30.5304 10.2365C30.9176 9.70017 31.1239 9.05903 31.1204 8.40257Z" fill="black"/>
<path d="M34.9951 13.4459C34.9617 13.6897 34.8306 13.9106 34.6306 14.0599C34.4306 14.2091 34.1782 14.2747 33.9288 14.242C33.6794 14.2093 33.4535 14.0811 33.3008 13.8855C33.1481 13.69 33.0811 13.4432 33.1146 13.1994C33.148 12.9555 33.2791 12.7347 33.4791 12.5854C33.6791 12.436 33.9315 12.3706 34.1809 12.4032C34.4303 12.4359 34.6562 12.5641 34.8089 12.7596C34.9616 12.9552 35.0286 13.202 34.9951 13.4459ZM34.4023 4.45866C34.5319 4.26514 34.722 4.11778 34.9443 4.03854C35.1666 3.9593 35.4091 3.95243 35.6356 4.01896C35.866 4.07531 36.0695 4.20731 36.2122 4.39287C36.3548 4.57844 36.4279 4.80628 36.4192 5.03826C36.3892 5.41036 36.3323 5.77992 36.2489 6.14416C36.024 7.37667 35.806 8.60913 35.5675 9.82833C35.4585 10.3147 35.3154 10.781 35.1587 11.274C35.1042 11.4281 35.0131 11.5674 34.893 11.6804C34.8183 11.7654 34.7229 11.8306 34.6156 11.87C34.5083 11.9094 34.3926 11.9217 34.2791 11.9058C34.1657 11.8898 34.0582 11.8462 33.9666 11.7788C33.875 11.7115 33.8022 11.6226 33.7551 11.5205C33.674 11.3373 33.63 11.1404 33.6256 10.9409C33.6256 10.1148 33.6256 9.28204 33.6801 8.44924C33.7727 7.26079 33.9549 6.0806 34.2252 4.91834C34.257 4.76263 34.317 4.61372 34.4023 4.47864V4.45866Z" fill="black"/>
<path fill-rule="evenodd" clip-rule="evenodd" d="M3.83698 18.7994C3.75653 18.975 3.73446 19.1707 3.77378 19.3591C3.79993 19.6075 3.85738 19.8518 3.94481 20.0864C4.05396 20.3737 4.1761 20.6578 4.32671 21.008C4.36134 21.0886 4.39754 21.1727 4.43541 21.2612C4.63851 21.7356 4.89334 22.3419 5.23326 23.2193C5.32947 23.4686 5.4149 23.7199 5.50094 23.9729C5.53569 24.0751 5.57057 24.1777 5.60627 24.2805C5.73425 24.646 5.95446 24.9743 6.24634 25.2346C6.37029 25.3776 6.53469 25.4818 6.71903 25.5339C6.90697 25.5871 7.10686 25.5837 7.2928 25.5243C7.47874 25.4648 7.64206 25.352 7.76154 25.2005C7.87869 25.052 7.94834 24.873 7.96189 24.6861C8.03789 24.3218 8.01194 23.9442 7.88669 23.593C7.68789 23.01 7.46143 22.4261 7.20029 21.855L7.19909 21.8525C6.76949 20.959 6.3328 20.0717 5.87545 19.1841L5.87203 19.1778C5.73814 18.9466 5.56415 18.7398 5.35786 18.5669C5.22394 18.4126 5.03922 18.3085 4.83522 18.2726C4.62687 18.2359 4.41199 18.2729 4.22894 18.3768C4.05577 18.4735 3.9185 18.6214 3.83698 18.7994Z" fill="black"/>
<path fill-rule="evenodd" clip-rule="evenodd" d="M10.3985 16.5991C9.72486 16.4285 9.02137 16.4037 8.33703 16.5263C7.80697 16.5773 7.28566 16.6969 6.92366 16.9337C6.73954 17.0542 6.59069 17.2089 6.50789 17.4056C6.42463 17.6034 6.414 17.8296 6.48223 18.0816C6.6068 18.5432 6.76857 18.992 6.92977 19.4393L6.95589 19.5118L6.95652 19.5134C7.44189 20.813 7.93189 22.1083 8.42635 23.3991C8.484 23.6025 8.56554 23.7988 8.66932 23.9838L8.67126 23.9873C8.80834 24.2172 8.98417 24.4229 9.19132 24.5956C9.29492 24.6906 9.42303 24.7563 9.56194 24.7857C9.70223 24.8153 9.84812 24.8067 9.98372 24.7608C10.1194 24.7149 10.2395 24.6334 10.331 24.5253C10.4211 24.419 10.4801 24.2909 10.5017 24.1545C10.5911 23.7841 10.5625 23.3958 10.4196 23.0418C10.375 22.9226 10.3401 22.8009 10.3032 22.6727C10.2909 22.63 10.2785 22.5865 10.2653 22.5422C11.3971 22.1096 12.6014 21.528 13.0249 20.1748C13.1907 19.7072 13.2046 19.2009 13.0645 18.7252C12.9242 18.249 12.6365 17.827 12.241 17.5172C11.7026 17.0834 11.0738 16.7701 10.3985 16.5991ZM8.53132 18.2588C8.5536 18.2525 8.57606 18.2467 8.59857 18.2413C9.33543 18.128 10.0893 18.2789 10.7214 18.6661C11 18.8556 11.1141 19.066 11.1337 19.2685C11.1539 19.477 11.0764 19.703 10.9206 19.9202C10.6263 20.3305 10.0891 20.6589 9.60395 20.7201C9.25023 19.9236 8.89103 19.0949 8.53132 18.2588Z" fill="black"/>
<path d="M14.8892 15.1415C15.6914 14.7793 16.6851 14.7167 17.4626 14.9714C17.6584 15.0272 17.8283 15.1478 17.9432 15.3127C18.0574 15.4765 18.1101 15.6739 18.0925 15.8713C18.0914 15.9994 18.0592 16.1255 17.9987 16.2392C17.9371 16.3549 17.8479 16.4545 17.7386 16.5295C17.6294 16.6044 17.5032 16.6525 17.371 16.6697C17.2386 16.687 17.104 16.6728 16.9785 16.6284L16.969 16.6251L16.96 16.6204C16.8958 16.5876 16.8275 16.5628 16.757 16.5467L16.7525 16.5457C16.2055 16.4037 15.6896 16.6391 15.5011 16.9283C15.4112 17.0661 15.4001 17.2053 15.475 17.332C15.5551 17.4676 15.7518 17.6197 16.1496 17.7282C16.2591 17.7576 16.3712 17.7859 16.485 17.8147C16.7996 17.8944 17.1266 17.9771 17.4428 18.0918L17.444 18.0923C18.9026 18.6349 19.4458 19.7587 19.2598 20.8157C19.0759 21.8611 18.183 22.8124 16.8403 23.0368C16.3518 23.1427 15.8433 23.122 15.3653 22.9769C14.8861 22.8314 14.4542 22.5659 14.1124 22.2065L14.1035 22.1972C13.9956 22.0618 13.923 21.9028 13.8908 21.734C13.8612 21.5817 13.8768 21.4244 13.9357 21.2804C13.9942 21.1373 14.0932 21.0135 14.2209 20.9233C14.3558 20.821 14.5184 20.7596 14.6887 20.7468C14.8583 20.7341 15.0281 20.7701 15.1771 20.8505C15.3259 20.9208 15.4643 21.0104 15.5885 21.117L15.5908 21.119C15.8106 21.3155 16.0765 21.3667 16.3315 21.3193C16.5902 21.2712 16.8334 21.1215 16.9899 20.9229C17.1453 20.7256 17.2077 20.4912 17.1336 20.2637C17.0591 20.0345 16.8351 19.7777 16.3428 19.563C16.2141 19.5096 16.0807 19.4665 15.9419 19.4245C15.9044 19.4132 15.8664 19.402 15.8279 19.3905C15.7252 19.3601 15.6196 19.3287 15.5161 19.2941C15.4448 19.2704 15.374 19.2478 15.304 19.2255C15.1125 19.1645 14.9258 19.1051 14.7462 19.0254C14.3551 18.8952 14.0173 18.6453 13.783 18.3125C13.5476 17.9785 13.4292 17.579 13.4454 17.1737C13.4466 16.1861 14.0828 15.5057 14.8892 15.1415Z" fill="black"/>
<path d="M25.0591 15.0361C24.9036 14.9618 24.7316 14.9266 24.5587 14.9335C24.3857 14.9404 24.2173 14.9894 24.0685 15.0759C23.9207 15.1619 23.7969 15.2822 23.7082 15.4263C23.6269 15.5476 23.5706 15.6832 23.5426 15.8257C23.5145 15.968 23.5152 16.1143 23.5445 16.2563C23.5735 16.4388 23.6056 16.6163 23.6373 16.7914C23.6898 17.081 23.7409 17.3642 23.7746 17.6528L23.7759 17.6602C23.8526 18.1129 23.8928 18.5708 23.8964 19.0296L23.8967 19.0362C23.923 19.5317 23.7503 20.0176 23.4157 20.3907L23.4104 20.3974C23.3015 20.5338 23.156 20.6379 22.99 20.698C22.8241 20.7582 22.6443 20.772 22.4707 20.738C22.2972 20.7039 22.1368 20.6234 22.0074 20.5052C21.8781 20.3871 21.7847 20.2357 21.7382 20.0688C21.6387 19.717 21.5812 19.3551 21.5666 18.9904L21.7364 16.3468C21.7389 16.3123 21.7418 16.2768 21.7447 16.2411C21.7511 16.1608 21.7578 16.079 21.7605 16.0027C21.7645 15.8905 21.7611 15.7751 21.7343 15.6658C21.707 15.5542 21.6549 15.4479 21.5626 15.3575C21.4711 15.2679 21.3477 15.2019 21.1924 15.1569C20.9115 15.0774 20.6741 15.0799 20.4762 15.162C20.2782 15.2442 20.1425 15.3966 20.0465 15.5727C19.9513 15.7474 19.8901 15.9541 19.8438 16.1612C19.8094 16.3148 19.7818 16.4762 19.7556 16.6297C19.7465 16.6826 19.7377 16.7346 19.7287 16.785L19.7285 16.7865C19.5881 17.6286 19.5463 18.4835 19.6039 19.3348C19.6147 19.7949 19.7128 20.249 19.8934 20.674C20.0971 21.2223 20.4661 21.6974 20.9516 22.0366C21.4382 22.3764 22.0188 22.5636 22.6166 22.5735C23.2145 22.5834 23.8013 22.4155 24.2993 22.092C24.7966 21.769 25.1819 21.306 25.4045 20.7643C25.7157 20.0743 25.8619 19.3239 25.8317 18.5703C25.8134 18.0202 25.7828 17.4658 25.7523 16.9142C25.7374 16.6436 25.7225 16.3736 25.7091 16.1052C25.7023 15.8362 25.6116 15.5755 25.449 15.3583C25.3483 15.221 25.2144 15.1103 25.0591 15.0361Z" fill="black"/>
<path d="M30.5644 19.1817C30.5486 19.2013 30.532 19.2216 30.5146 19.2427C30.3881 18.5291 30.2709 17.8157 30.1534 17.1012C30.1113 16.8449 30.069 16.5875 30.0264 16.3308L30.0216 16.3021L30.0061 16.2774C29.9767 16.2308 29.9738 16.1852 29.9738 16.0878V16.0765L29.9721 16.0654C29.9403 15.8643 29.8473 15.6772 29.7051 15.5285C29.5634 15.3802 29.3794 15.277 29.1769 15.2322C28.9748 15.1835 28.7624 15.1942 28.5665 15.2631C28.371 15.3319 28.2007 15.4554 28.0767 15.6183C27.9736 15.7432 27.8891 15.8819 27.8258 16.03C27.6821 16.3491 27.5371 16.6689 27.3917 16.9897L27.3892 16.9952C27.0263 17.796 26.6609 18.6021 26.3062 19.4145L26.3051 19.4172C26.0873 19.944 25.9075 20.4991 25.7284 21.0524C25.6926 21.1629 25.6569 21.2733 25.6208 21.3834C25.5561 21.558 25.5278 21.7435 25.5375 21.9289C25.5258 22.0949 25.5664 22.2605 25.6541 22.4033C25.7434 22.5491 25.8773 22.6637 26.0368 22.7312C26.2058 22.8036 26.3948 22.819 26.5738 22.7749C26.7525 22.7308 26.9111 22.63 27.0247 22.4883C27.1699 22.3137 27.2947 22.1233 27.3966 21.9216C27.6971 21.3206 27.9843 20.7123 28.2702 20.1065C28.3808 19.8723 28.4883 19.6624 28.6106 19.4339C28.619 19.4621 28.6275 19.4896 28.6364 19.5171C28.7646 20.0688 28.9809 20.5973 29.2774 21.0831C29.3335 21.186 29.4117 21.276 29.5066 21.3468C29.6026 21.4184 29.7134 21.4687 29.8313 21.4943C29.9491 21.5198 30.0713 21.5199 30.1893 21.4946C30.307 21.4693 30.4182 21.419 30.5142 21.3477L30.7043 21.2085L32.1799 19.9933L32.0927 20.537C31.9729 21.2844 31.8541 22.0255 31.7278 22.7668C31.6451 23.0954 31.6453 23.4386 31.7281 23.7671C31.764 23.9519 31.8554 24.1221 31.9907 24.2559C32.1272 24.3908 32.3019 24.4825 32.4923 24.5191C32.6827 24.5556 32.88 24.5353 33.0585 24.4609C33.2343 24.3876 33.3839 24.2649 33.4885 24.1087C33.7318 23.8135 33.8833 23.4562 33.9249 23.0792C33.9875 22.5469 34.0582 22.0073 34.129 21.4679C34.2106 20.8461 34.2921 20.2245 34.361 19.6148L34.3612 19.6129C34.4275 18.9456 34.4595 18.2755 34.4573 17.6049C34.4718 17.3931 34.4179 17.182 34.3029 17.0016C34.1875 16.8205 34.0167 16.6798 33.8147 16.5993C33.6047 16.5059 33.3695 16.4809 33.1439 16.5281C32.9197 16.575 32.7168 16.6905 32.5646 16.8579C32.2924 17.104 32.0371 17.3674 31.8002 17.6463L31.7986 17.6482C31.5401 17.9632 31.2833 18.2844 31.0281 18.6036C30.873 18.7976 30.7183 18.9911 30.5644 19.1817Z" fill="black"/>
</g>
<defs>
<clipPath id="clip0_21_1557">
<rect width="40" height="25.1429" fill="white" transform="translate(0.166626 0.428711)"/>
</clipPath>
</defs>
</svg>
