<svg width="41" height="40" viewBox="0 0 41 40" fill="none" xmlns="http://www.w3.org/2000/svg">
<g clip-path="url(#clip0_21_1572)">
<path d="M29.7266 3.44824H10.6066L1.04662 20.0003L10.6066 36.5523H29.7266L39.2866 20.0003L29.7266 3.44824Z" stroke="black" stroke-width="0.8" stroke-miterlimit="10"/>
<path d="M11.8946 4.31197C11.9826 4.22397 20.5986 4.16797 20.7346 4.16797C20.8706 4.16797 29.4866 4.22397 29.5346 4.31197C29.5826 4.39997 38.1746 19.24 38.1746 19.376C38.1746 19.512 29.6626 34.352 29.5746 34.44C29.4866 34.528 20.8706 34.576 20.7746 34.576C20.6786 34.576 12.0226 34.528 11.9746 34.44C11.9266 34.352 3.25462 19.512 3.25462 19.376C3.25462 19.24 11.8066 4.39997 11.8946 4.31197Z" stroke="black" stroke-width="0.8" stroke-miterlimit="10"/>
<path d="M13.1746 5.184C13.3586 5.008 21.0306 4.896 21.3026 4.896C21.5746 4.896 29.2546 5.008 29.4306 5.184C29.6066 5.36 37.1506 18.48 37.1506 18.784C37.1506 19.088 29.6066 32.176 29.4306 32.384C29.2546 32.592 21.5746 32.672 21.3026 32.672C21.0306 32.672 13.3586 32.56 13.1746 32.384C12.9906 32.208 5.45462 19.088 5.45462 18.784C5.45462 18.48 12.9666 5.36 13.1746 5.184Z" stroke="black" stroke-width="0.8" stroke-miterlimit="10"/>
<path d="M14.4626 6.0561C14.7266 5.7841 21.4706 5.6001 21.8706 5.6001C22.2706 5.6001 29.0146 5.7601 29.2786 6.0321C29.5426 6.3041 36.0866 17.7201 36.0866 18.1281C36.0866 18.5361 29.5426 29.9361 29.2786 30.2001C29.0146 30.4641 22.2786 30.6321 21.8706 30.6321C21.4626 30.6321 14.7266 30.4641 14.4626 30.2001C14.1986 29.9361 7.66263 18.5281 7.66263 18.1281C7.66263 17.7281 14.1986 6.3201 14.4626 6.0561Z" stroke="black" stroke-width="0.8" stroke-miterlimit="10"/>
<path d="M15.7506 6.92005C16.1026 6.56805 21.9026 6.35205 22.4386 6.35205C22.9746 6.35205 28.7826 6.56805 29.1346 6.92005C29.4866 7.27205 35.0146 16.96 35.0146 17.504C35.0146 18.048 29.4866 27.728 29.1346 28.08C28.7826 28.432 22.9826 28.656 22.4386 28.656C21.8946 28.656 16.1026 28.432 15.7506 28.08C15.3986 27.728 9.86263 18.04 9.86263 17.504C9.86263 16.968 15.3666 7.27205 15.7506 6.92005Z" stroke="black" stroke-width="0.8" stroke-miterlimit="10"/>
<path d="M17.0306 7.79227C17.4786 7.34427 22.3346 7.07227 23.0066 7.07227C23.6786 7.07227 28.5426 7.34427 28.9826 7.79227C29.4226 8.24027 33.9506 16.2003 33.9506 16.8803C33.9506 17.5603 29.4306 25.5203 28.9666 25.9603C28.5026 26.4003 23.6706 26.6803 22.9906 26.6803C22.3106 26.6803 17.4626 26.4083 17.0146 25.9603C16.5666 25.5123 12.0546 17.5523 12.0546 16.8803C12.0546 16.2083 16.5906 8.23227 17.0306 7.79227Z" stroke="black" stroke-width="0.8" stroke-miterlimit="10"/>
<path d="M18.3186 8.6558C18.8466 8.1278 22.7666 7.7998 23.5746 7.7998C24.3826 7.7998 28.3106 8.1278 28.8386 8.6558C29.3666 9.1838 32.8866 15.4398 32.8866 16.2478C32.8866 17.0558 29.3666 23.3118 28.8386 23.8478C28.3106 24.3838 24.3906 24.7038 23.5746 24.7038C22.7586 24.7038 18.8466 24.3758 18.3186 23.8478C17.7906 23.3198 14.2706 17.0638 14.2706 16.2478C14.2706 15.4318 17.7666 9.1918 18.3186 8.6558Z" stroke="black" stroke-width="0.8" stroke-miterlimit="10"/>
<path d="M19.5986 9.52783C20.2226 8.91183 23.1986 8.52783 24.1426 8.52783C25.0866 8.52783 28.0706 8.91183 28.6866 9.52783C29.3026 10.1438 31.8146 14.6798 31.8146 15.6238C31.8146 16.5678 29.3106 21.1038 28.6866 21.7278C28.0626 22.3518 25.0946 22.7278 24.1666 22.7278C23.2386 22.7278 20.2466 22.3438 19.6226 21.7278C18.9986 21.1118 16.5026 16.5758 16.5026 15.6238C16.5026 14.6718 18.9826 10.1438 19.5986 9.52783Z" stroke="black" stroke-width="0.8" stroke-miterlimit="10"/>
<path d="M20.8866 10.4C21.5906 9.68805 23.6306 9.24805 24.7106 9.24805C25.7906 9.24805 27.8306 9.68805 28.5426 10.4C29.2546 11.112 30.7506 13.92 30.7506 15C30.7506 16.08 29.2466 18.896 28.5426 19.608C27.8386 20.32 25.7666 20.752 24.7106 20.752C23.6546 20.752 21.5906 20.312 20.8866 19.608C20.1826 18.904 18.6786 16.08 18.6786 15C18.6786 13.92 20.1666 11.104 20.8866 10.4Z" stroke="black" stroke-width="0.8" stroke-miterlimit="10"/>
<path d="M29.6866 14.4001C29.6889 15.4201 29.3374 16.4093 28.6921 17.199C28.0467 17.9889 27.1475 18.5305 26.1476 18.7315C25.1476 18.9325 24.1089 18.7806 23.2085 18.3017C22.308 17.8226 21.6015 17.0461 21.2094 16.1046C20.8173 15.1631 20.7638 14.1147 21.0581 13.1381C21.3524 12.1616 21.9762 11.3173 22.8233 10.7492C23.6703 10.181 24.6882 9.92422 25.7034 10.0225C26.7185 10.1208 27.6683 10.5681 28.3906 11.2881C28.802 11.6951 29.1285 12.1798 29.3509 12.7141C29.5734 13.2483 29.6875 13.8214 29.6866 14.4001Z" stroke="black" stroke-width="0.8" stroke-miterlimit="10"/>
</g>
<defs>
<clipPath id="clip0_21_1572">
<rect width="40" height="40" fill="white" transform="translate(0.166626)"/>
</clipPath>
</defs>
</svg>
