<svg width="41" height="40" viewBox="0 0 41 40" fill="none" xmlns="http://www.w3.org/2000/svg">
<path d="M5.44664 26.5522C5.79568 26.5522 6.07864 23.6188 6.07864 20.0002C6.07864 16.3817 5.79568 13.4482 5.44664 13.4482C5.09759 13.4482 4.81464 16.3817 4.81464 20.0002C4.81464 23.6188 5.09759 26.5522 5.44664 26.5522Z" fill="black"/>
<path d="M7.12664 27.2802C7.51545 27.2802 7.83064 24.0209 7.83064 20.0002C7.83064 15.9796 7.51545 12.7202 7.12664 12.7202C6.73783 12.7202 6.42264 15.9796 6.42264 20.0002C6.42264 24.0209 6.73783 27.2802 7.12664 27.2802Z" fill="black"/>
<path d="M8.99863 28.0958C9.42719 28.0958 9.77463 24.4711 9.77463 19.9998C9.77463 15.5285 9.42719 11.9038 8.99863 11.9038C8.57007 11.9038 8.22263 15.5285 8.22263 19.9998C8.22263 24.4711 8.57007 28.0958 8.99863 28.0958Z" fill="black"/>
<path d="M11.0706 28.9918C11.5478 28.9918 11.9346 24.966 11.9346 19.9998C11.9346 15.0337 11.5478 11.0078 11.0706 11.0078C10.5934 11.0078 10.2066 15.0337 10.2066 19.9998C10.2066 24.966 10.5934 28.9918 11.0706 28.9918Z" fill="black"/>
<path d="M13.3746 29.9918C13.9048 29.9918 14.3346 25.5182 14.3346 19.9998C14.3346 14.4814 13.9048 10.0078 13.3746 10.0078C12.8445 10.0078 12.4146 14.4814 12.4146 19.9998C12.4146 25.5182 12.8445 29.9918 13.3746 29.9918Z" fill="black"/>
<path d="M15.9426 31.104C16.5302 31.104 17.0066 26.1326 17.0066 20C17.0066 13.8674 16.5302 8.896 15.9426 8.896C15.355 8.896 14.8786 13.8674 14.8786 20C14.8786 26.1326 15.355 31.104 15.9426 31.104Z" fill="black"/>
<path d="M18.7906 32.3361C19.4445 32.3361 19.9746 26.813 19.9746 20.0001C19.9746 13.1871 19.4445 7.66406 18.7906 7.66406C18.1367 7.66406 17.6066 13.1871 17.6066 20.0001C17.6066 26.813 18.1367 32.3361 18.7906 32.3361Z" fill="black"/>
<path d="M21.9506 33.7039C22.6797 33.7039 23.2706 27.5684 23.2706 19.9999C23.2706 12.4314 22.6797 6.2959 21.9506 6.2959C21.2216 6.2959 20.6306 12.4314 20.6306 19.9999C20.6306 27.5684 21.2216 33.7039 21.9506 33.7039Z" fill="black"/>
<path d="M25.4626 35.2321C26.2712 35.2321 26.9266 28.4125 26.9266 20.0001C26.9266 11.5877 26.2712 4.76807 25.4626 4.76807C24.6541 4.76807 23.9986 11.5877 23.9986 20.0001C23.9986 28.4125 24.6541 35.2321 25.4626 35.2321Z" fill="black"/>
<path d="M29.3666 36.9201C30.2635 36.9201 30.9906 29.3447 30.9906 20.0001C30.9906 10.6554 30.2635 3.08008 29.3666 3.08008C28.4697 3.08008 27.7426 10.6554 27.7426 20.0001C27.7426 29.3447 28.4697 36.9201 29.3666 36.9201Z" fill="black"/>
<path d="M33.7026 38.8002C34.7012 38.8002 35.5106 30.3832 35.5106 20.0002C35.5106 9.61724 34.7012 1.2002 33.7026 1.2002C32.7041 1.2002 31.8946 9.61724 31.8946 20.0002C31.8946 30.3832 32.7041 38.8002 33.7026 38.8002Z" fill="black"/>
</svg>
