<svg width="40" height="16" viewBox="0 0 40 16" fill="none" xmlns="http://www.w3.org/2000/svg">
<g clip-path="url(#clip0_21_1585)">
<path d="M9.49472 0.307617C7.93262 0.307617 6.43451 0.928156 5.32995 2.03272L1.72511 5.63757C0.620539 6.74213 0 8.24023 0 9.80234C0 13.0553 2.637 15.6922 5.8899 15.6922C7.452 15.6922 8.9501 15.0717 10.0547 13.9671L12.5482 11.4736C12.5482 11.4736 12.5482 11.4737 12.5482 11.4736L19.8133 4.20844C20.3409 3.6809 21.0564 3.38454 21.8024 3.38454C23.0514 3.38454 24.1104 4.1986 24.4775 5.32509L26.7704 3.03221C25.7244 1.39395 23.8903 0.307617 21.8024 0.307617C20.2403 0.307617 18.7422 0.928156 17.6376 2.03272L7.87897 11.7914C7.35144 12.319 6.63595 12.6153 5.8899 12.6153C4.33633 12.6153 3.07692 11.3559 3.07692 9.80234C3.07692 9.05628 3.37329 8.3408 3.90082 7.81326L7.50564 4.20844C8.03318 3.6809 8.74867 3.38454 9.49472 3.38454C10.7438 3.38454 11.8027 4.19863 12.1698 5.32516L14.4627 3.03227C13.4167 1.39398 11.5826 0.307617 9.49472 0.307617Z" fill="#394149"/>
<path d="M20.1867 11.7914C19.6591 12.319 18.9436 12.6153 18.1976 12.6153C16.9487 12.6153 15.8899 11.8015 15.5227 10.6752L13.2298 12.968C14.2759 14.606 16.1099 15.6922 18.1976 15.6922C19.7597 15.6922 21.2578 15.0717 22.3624 13.9671L32.121 4.20844C32.6486 3.6809 33.364 3.38454 34.1101 3.38454C35.6637 3.38454 36.9231 4.64395 36.9231 6.19752C36.9231 6.94357 36.6267 7.65905 36.0992 8.18659L32.4944 11.7914C31.9668 12.319 31.2513 12.6153 30.5053 12.6153C29.2563 12.6153 28.1974 11.8013 27.8303 10.6749L25.5374 12.9678C26.5834 14.606 28.4175 15.6922 30.5053 15.6922C32.0674 15.6922 33.5655 15.0717 34.67 13.9671L38.2749 10.3623C39.3794 9.25772 40 7.75962 40 6.19752C40 2.94461 37.363 0.307617 34.1101 0.307617C32.548 0.307617 31.0499 0.928156 29.9453 2.03272L20.1867 11.7914Z" fill="#394149"/>
</g>
<defs>
<clipPath id="clip0_21_1585">
<rect width="40" height="15.3846" fill="white" transform="translate(0 0.307617)"/>
</clipPath>
</defs>
</svg>
