<svg width="41" height="28" viewBox="0 0 41 28" fill="none" xmlns="http://www.w3.org/2000/svg">
<g id="logoipsum-283" clip-path="url(#clip0_21_1538)">
<path id="Vector" d="M37.6666 1.49983C37.6666 1.96007 38.0397 2.33317 38.5 2.33317H39.3333C39.7936 2.33317 40.1666 1.96007 40.1666 1.49983C40.1666 1.0396 39.7936 0.666504 39.3333 0.666504H38.5C38.0397 0.666504 37.6666 1.0396 37.6666 1.49983Z" fill="#212326"/>
<path id="Vector_2" d="M13.5 27.3332H17.5482L16.3696 26.1546C16.0571 25.8421 15.6332 25.6665 15.1912 25.6665H13.5C7.05663 25.6665 1.83329 20.4432 1.83329 13.9998C1.83329 7.5565 7.05663 2.33318 13.5 2.33317H26.8333C33.2766 2.33317 38.5 7.5565 38.5 13.9998C38.5 20.4432 33.2766 25.6665 26.8333 25.6665H21.8456C21.1825 25.6665 20.5466 25.4031 20.0778 24.9343L18.6971 23.5536C17.9157 22.7722 16.8558 22.3332 15.7508 22.3332H13.5C8.89756 22.3332 5.16663 18.6022 5.16663 13.9998C5.16663 9.39744 8.89756 5.6665 13.5 5.6665H26.8333C31.4357 5.6665 35.1666 9.39744 35.1666 13.9998C35.1666 18.6022 31.4357 22.3332 26.8333 22.3332H23.6307C22.9676 22.3332 22.3318 22.0698 21.8629 21.601L20.4822 20.2202C19.7008 19.4388 18.641 18.9998 17.5359 18.9998H13.5C10.7386 18.9998 8.49996 16.7612 8.49996 13.9998C8.49996 11.2384 10.7386 8.99984 13.5 8.99984H26.8333C29.5947 8.99984 31.8333 11.2384 31.8333 13.9998C31.8333 16.7276 29.649 18.9452 26.9341 18.9988L26.9336 18.9998H25.714C25.051 18.9998 24.4151 18.7364 23.9462 18.2676L22.5655 16.8869C21.9244 16.2457 21.0958 15.8351 20.2085 15.7084L20.1666 15.6665H13.5C12.5795 15.6665 11.8333 14.9203 11.8333 13.9998C11.8333 13.0794 12.5795 12.3332 13.5 12.3332H26.8333C27.7538 12.3332 28.5 13.0794 28.5 13.9998C28.5 14.9203 27.7538 15.6665 26.8333 15.6665H23.5L24.6785 16.845C24.991 17.1576 25.415 17.3332 25.857 17.3332H26.8333C28.6742 17.3332 30.1666 15.8408 30.1666 13.9998C30.1666 12.1589 28.6742 10.6665 26.8333 10.6665H13.5C11.659 10.6665 10.1666 12.1589 10.1666 13.9998C10.1666 15.8408 11.659 17.3332 13.5 17.3332H19.6192C20.2823 17.3332 20.9182 17.5966 21.387 18.0654L22.7678 19.4461C23.5492 20.2275 24.609 20.6665 25.714 20.6665H27.25V20.6537C30.7378 20.4386 33.5 17.5418 33.5 13.9998C33.5 10.318 30.5152 7.33317 26.8333 7.33317H13.5C9.81809 7.33317 6.83329 10.318 6.83329 13.9998C6.83329 17.6818 9.81809 20.6665 13.5 20.6665H17.5359C18.199 20.6665 18.8348 20.9299 19.3037 21.3987L20.6844 22.7794C21.4658 23.5608 22.5256 23.9998 23.6307 23.9998H26.8333C32.3562 23.9998 36.8333 19.5227 36.8333 13.9998C36.8333 8.47697 32.3562 3.99984 26.8333 3.99984H13.5C7.97709 3.99984 3.49996 8.47697 3.49996 13.9998C3.49996 19.5227 7.97709 23.9998 13.5 23.9998H15.7508C16.4138 23.9998 17.0497 24.2632 17.5186 24.732L18.8993 26.1128C19.6807 26.8942 20.7405 27.3332 21.8456 27.3332H26.8333C34.1971 27.3332 40.1666 21.3636 40.1666 13.9998C40.1666 6.63604 34.1971 0.666503 26.8333 0.666504L13.5 0.666507C6.13616 0.666507 0.166625 6.63604 0.166626 13.9998C0.166627 21.3636 6.13617 27.3332 13.5 27.3332Z" fill="#212326"/>
</g>
<defs>
<clipPath id="clip0_21_1538">
<rect width="40" height="26.6667" fill="white" transform="translate(0.166626 0.666504)"/>
</clipPath>
</defs>
</svg>
