<svg width="40" height="25" viewBox="0 0 40 25" fill="none" xmlns="http://www.w3.org/2000/svg">
<path d="M27.0534 2.54495C27.5297 2.01574 28.0588 1.57914 28.6013 1.23515C29.5538 0.639791 30.5594 0.322266 31.5913 0.322266V8.96159C30.8372 6.34201 29.2099 4.09288 27.0534 2.54495ZM39.8999 24.2029H9.29837C4.27085 24.2029 0.209167 20.1279 0.209167 15.1137C0.209167 10.3111 3.9401 6.36846 8.66332 6.03771V0.322266C9.72171 0.322266 10.7669 0.626561 11.746 1.23515C12.2884 1.56591 12.8176 2.00251 13.2939 2.50525C15.2387 1.14254 17.5937 0.348726 20.1471 0.348726C20.1471 5.86571 18.1626 12.2824 11.7062 12.2956H20.081C19.8428 11.224 18.8638 10.4302 17.6996 10.4169H22.5683C21.404 10.4169 20.425 11.224 20.1868 12.3089H27.9927C29.5538 12.3089 31.1018 12.6132 32.5571 13.2218C33.9992 13.8171 35.3223 14.7036 36.4203 15.8017C37.5317 16.913 38.4049 18.2228 39.0003 19.6649C39.5956 21.0938 39.8999 22.6417 39.8999 24.2029ZM13.8099 6.19652C14.0083 6.71246 14.5375 7.29461 15.2784 7.71795C16.0193 8.14136 16.7867 8.31336 17.3291 8.23395C17.1307 7.71795 16.6015 7.13586 15.8606 6.71246C15.1197 6.28912 14.3523 6.11712 13.8099 6.19652ZM24.9497 7.71795C24.2088 8.14136 23.4415 8.31336 22.899 8.23395C23.0975 7.71795 23.6267 7.13586 24.3676 6.71246C25.1085 6.28912 25.8759 6.11712 26.4183 6.19652C26.2331 6.71246 25.6906 7.29461 24.9497 7.71795Z" fill="#283841"/>
</svg>
