<svg width="139" height="140" viewBox="0 0 139 140" fill="none" xmlns="http://www.w3.org/2000/svg">
<path d="M96.8432 18.0498C96.8432 18.0498 96.8003 18.0715 96.7788 18.0932C96.8003 18.0932 96.8218 18.0715 96.8432 18.0498C96.8862 18.0282 96.9507 17.9848 97.0151 17.9415C96.9722 17.9632 96.9077 18.0065 96.8432 18.0282V18.0498ZM100.861 16.273C100.732 16.2947 100.604 16.338 100.496 16.3814C99.83 16.5764 99.1639 16.8364 98.5407 17.1398C98.4548 17.1614 98.3903 17.2048 98.3044 17.2481C99.4647 16.6847 100.689 16.2947 101.936 16.013C101.57 16.078 101.227 16.1647 100.861 16.273ZM98.025 17.3998C98.025 17.3998 97.8961 17.4648 97.8317 17.5081C97.9821 17.4215 98.154 17.3348 98.3044 17.2698C98.1969 17.3131 98.111 17.3564 98.025 17.3998ZM102.344 15.948C102.215 15.9697 102.065 15.9913 101.936 16.0347C102.237 15.9697 102.537 15.9263 102.838 15.883C102.666 15.9047 102.494 15.9263 102.323 15.9697L102.344 15.948ZM102.344 15.948C102.215 15.9697 102.065 15.9913 101.936 16.0347C102.237 15.9697 102.537 15.9263 102.838 15.883C102.666 15.9047 102.494 15.9263 102.323 15.9697L102.344 15.948ZM100.496 16.3814C99.83 16.5764 99.1639 16.8364 98.5407 17.1398C98.4548 17.1614 98.3903 17.2048 98.3044 17.2481C99.4647 16.6847 100.689 16.2947 101.936 16.013C101.57 16.078 101.227 16.1647 100.861 16.273C100.732 16.2947 100.604 16.338 100.496 16.3814ZM97.6383 17.6165C97.6383 17.6165 97.7027 17.5731 97.7457 17.5515C97.7672 17.5298 97.8102 17.5081 97.8317 17.5081C97.9821 17.4215 98.154 17.3348 98.3044 17.2698C98.1969 17.3131 98.111 17.3564 98.025 17.3998C97.8961 17.4648 97.7672 17.5515 97.6383 17.6165ZM96.8432 18.0498C96.8432 18.0498 96.9507 17.9848 97.0151 17.9415C97.0366 17.9198 97.0796 17.8982 97.1226 17.8765C97.2945 17.7898 97.4449 17.6815 97.6168 17.5948C97.3589 17.7248 97.1011 17.8765 96.8432 18.0282V18.0498ZM138.829 43.467C138.829 20.5634 121.274 1.79848 98.992 0.130011C98.4763 0.0866739 97.9606 0.0433369 97.4234 0.0216685C97.1656 0.0216685 96.8862 0 96.6069 0C96.3061 0 95.9837 0 95.6614 0C95.4036 0 95.1458 0 94.8664 0C94.4796 0 94.0929 0 93.7276 0.0433369C93.4912 0.0433369 93.2549 0.0650054 93.0185 0.0866739C84.1657 0.628386 76.022 3.90033 69.404 9.03575C69.404 9.03575 69.3825 9.01408 69.361 8.99242C69.361 8.99242 69.3395 8.99242 69.3395 8.97075C69.318 8.97075 69.1891 8.8624 69.1676 8.84074C68.9742 8.68906 68.8023 8.55905 68.6089 8.40737C67.6205 7.69231 66.6106 6.99892 65.5792 6.34886C65.042 6.02384 64.5264 5.72048 63.9892 5.41712C63.7313 5.26544 63.452 5.11376 63.1726 4.98375C62.9148 4.85374 62.657 4.70206 62.3776 4.57205C61.7975 4.29036 61.2173 4.00867 60.6157 3.72698C60.057 3.48862 59.5198 3.25027 58.9611 3.03359H58.9397C58.381 2.79523 57.8008 2.60022 57.2207 2.38353C56.9198 2.27519 56.6405 2.18852 56.3397 2.08017C56.0174 1.97183 55.6951 1.88516 55.3728 1.77681C55.0719 1.69014 54.7711 1.60347 54.4918 1.51679C54.2124 1.45179 53.9546 1.36511 53.6753 1.32178C53.1811 1.19177 52.6654 1.06176 52.1282 0.953413C51.548 0.823402 50.9679 0.71506 50.3662 0.606717C50.0654 0.56338 49.7646 0.498375 49.4852 0.455038C48.991 0.390033 48.4968 0.325027 48.0026 0.260022C47.5944 0.216685 47.1861 0.173348 46.7778 0.130011C46.6059 0.130011 46.4126 0.108342 46.2407 0.0866739C45.1233 0.0216685 43.9845 0 42.8672 0C42.5663 0 42.287 0 41.9862 0C41.6209 0 41.2556 0.0216685 40.8688 0.0433369C40.568 0.0433369 40.2672 0.0650054 39.9664 0.0866739C22.9269 1.34345 8.63789 12.5677 2.79335 27.9957C2.59996 28.5374 2.40658 29.0791 2.21319 29.6425C2.12724 29.9242 2.04129 30.2059 1.95534 30.4659C1.78345 31.0293 1.63303 31.5926 1.48262 32.156C1.39667 32.4377 1.33221 32.7194 1.26775 33.0011C1.05288 33.8895 0.859492 34.7996 0.687593 35.7313C0.687593 35.7313 0.687593 35.7313 0.687593 35.753C0.601644 36.2947 0.515695 36.8364 0.429746 37.3781C0.343797 37.9198 0.300822 38.4615 0.23636 39.0249C0.0644619 40.4984 0 41.9935 0 43.5103C0 43.9003 0 44.2687 0 44.6587C0 45.2004 0.0429746 45.7638 0.0859492 46.3055C0.107436 46.6089 0.128924 46.9122 0.150411 47.2156C0.23636 48.1257 0.343797 49.0358 0.472721 49.9242C0.601644 50.8126 0.752055 51.7226 0.945441 52.5894C1.05288 53.0878 1.1818 53.5861 1.31073 54.1062C2.75037 59.9567 5.39331 65.3088 8.93871 69.9458C8.93871 69.9458 8.9602 69.9675 8.9602 69.9892C3.33053 77.3348 0 86.5439 0 96.533C0 120.542 19.2956 140 43.1035 140C53.0092 140 62.1413 136.62 69.4255 130.964C76.7096 136.641 85.8418 140 95.7474 140C119.555 140 138.851 120.542 138.851 96.533C138.851 86.5439 135.52 77.3348 129.891 70.0108C135.52 62.6652 138.851 53.4561 138.851 43.4886L138.829 43.467ZM93.5342 20.7801C93.7276 20.585 93.921 20.39 94.0929 20.195C94.4796 19.8267 94.8664 19.48 95.2747 19.1549C95.4681 18.9816 95.6829 18.8299 95.8978 18.6782C95.9623 18.6349 96.0482 18.5699 96.1127 18.5265C96.1771 18.4832 96.2416 18.4182 96.3061 18.3965C96.392 18.3315 96.478 18.2882 96.5639 18.2232C96.6284 18.1798 96.6928 18.1365 96.7573 18.0932C96.7788 18.0932 96.8003 18.0715 96.8218 18.0498C96.8647 18.0282 96.9292 17.9848 96.9937 17.9415C97.0151 17.9198 97.0581 17.8982 97.1011 17.8765C97.273 17.7898 97.4234 17.6815 97.5953 17.5948C97.6383 17.5731 97.6598 17.5515 97.7027 17.5298C97.7242 17.5081 97.7672 17.4865 97.7887 17.4865C97.9391 17.3998 98.111 17.3131 98.2614 17.2481C99.4217 16.6847 100.646 16.2947 101.893 16.013C102.194 15.948 102.494 15.9047 102.795 15.8613C102.795 15.8613 102.817 15.8613 102.838 15.8613C102.86 15.8613 102.903 15.8613 102.946 15.8613C103.118 15.8397 103.311 15.818 103.504 15.7963C103.655 15.7963 103.784 15.7746 103.934 15.753C103.977 15.753 104.02 15.753 104.063 15.753C104.17 15.753 104.256 15.753 104.364 15.753C104.6 15.753 104.815 15.7313 105.051 15.7313C105.288 15.7313 105.546 15.7313 105.782 15.7313C105.997 15.7313 106.212 15.753 106.448 15.7746C106.706 15.7963 106.964 15.818 107.222 15.8613C107.479 15.883 107.737 15.9263 107.995 15.9697C108.081 15.9697 108.167 15.9913 108.274 16.013C111.046 16.5547 113.711 17.8548 115.945 19.935C115.988 19.9783 116.031 20.0217 116.074 20.065L117.578 21.4951C124.003 27.584 124.325 37.7681 118.309 44.2254L108.317 54.9729L97.8961 66.1755C95.9837 68.234 93.6631 69.6641 91.1921 70.4659C87.7541 71.5926 84.0153 71.5276 80.6203 70.2059C79.7394 69.8808 78.8584 69.4691 78.0419 68.9491C79.1592 67.4106 80.1691 65.7638 81.0716 64.0737C81.179 63.857 81.3079 63.6403 81.4369 63.402C81.5228 63.2286 81.6302 63.0336 81.7162 62.8386C82.812 60.6067 83.736 58.2882 84.4451 55.8613C84.531 55.558 84.617 55.2546 84.7029 54.9296C84.7459 54.7996 84.7889 54.6479 84.8318 54.4962C84.9608 54.0412 85.0682 53.5861 85.1542 53.1094C85.2616 52.6761 85.3475 52.221 85.4335 51.766C85.7773 49.9675 86.0136 48.104 86.1211 46.2405C86.1855 45.2871 86.207 44.312 86.207 43.3369C86.207 41.6901 86.0996 40.0433 85.9277 38.4399C85.8632 37.8982 85.7988 37.3564 85.7128 36.8364C85.5624 35.7746 85.3475 34.7129 85.1112 33.6728C84.8748 32.6761 84.6385 31.701 84.3376 30.7476V30.7259L93.5772 20.8017L93.5342 20.7801ZM54.4918 109.317L45.2737 119.22C39.2358 125.699 29.1583 126.024 22.7336 119.957L21.208 118.527C20.4989 117.855 19.8543 117.118 19.2956 116.338C14.7833 110.206 15.1271 101.538 20.4989 95.7963L30.4905 85.0488L40.9118 73.8462C42.8242 71.7877 45.1448 70.3575 47.6158 69.5558C51.0538 68.429 54.7926 68.494 58.1876 69.7941C59.0686 70.1192 59.9496 70.5525 60.7876 71.0726C59.6917 72.5894 58.7033 74.1928 57.8008 75.8613C57.6289 76.2297 57.4141 76.598 57.1992 77.0314C57.1562 77.1181 57.0917 77.2048 57.0488 77.3131C56.1893 79.0466 55.4372 80.8667 54.8141 82.7519C54.7281 83.0119 54.6422 83.2719 54.5562 83.5536C54.4488 83.857 54.3629 84.2037 54.2769 84.5287C54.2769 84.5287 54.2769 84.5287 54.2769 84.5504C54.191 84.8537 54.105 85.2004 54.0191 85.5038C53.1166 89.0141 52.6224 92.7194 52.6224 96.5114C52.6224 100.953 53.2885 105.244 54.5133 109.274L54.4918 109.317ZM30.5334 16.5114C30.7698 16.468 31.0062 16.4464 31.2425 16.4247C31.5004 16.403 31.7367 16.3814 31.9946 16.3814C32.2954 16.3597 32.5962 16.338 32.9185 16.338C33.1764 16.338 33.4127 16.338 33.6706 16.338C33.864 16.338 34.0788 16.3597 34.2937 16.3814C37.7532 16.6631 41.1052 18.0932 43.8341 20.6717L54.4918 30.7476L65.6007 41.2351C67.642 43.1636 69.0602 45.5038 69.8552 47.9957C70.9725 51.4626 70.9081 55.2329 69.6188 58.6566C69.2965 59.5666 68.8668 60.4334 68.3511 61.2784C68.3296 61.2784 68.3081 61.2351 68.2651 61.2134C68.2651 61.2134 68.2651 61.2134 68.2437 61.2134C64.0107 58.1365 59.219 55.818 54.0191 54.4745C50.5381 53.5428 46.8638 53.0661 43.1035 53.0661C38.6986 53.0661 34.4441 53.7378 30.469 54.9729L20.6278 45.6555C14.2031 39.5666 13.8808 29.4041 19.8972 22.9252L21.3154 21.4085C21.4873 21.2134 21.6807 21.0401 21.8526 20.8451C22.003 20.6934 22.1534 20.5634 22.3038 20.4334C22.7765 20 23.2707 19.61 23.7649 19.2633C23.9154 19.1549 24.0873 19.0466 24.2377 18.9382C24.3881 18.8299 24.56 18.7216 24.7319 18.6132C24.8608 18.5265 24.9682 18.4615 25.0972 18.3965C25.2261 18.3099 25.3765 18.2449 25.5054 18.1582H25.5269C25.5484 18.1365 25.5914 18.1148 25.6129 18.1148C25.7848 18.0282 25.9781 17.9415 26.1715 17.8548C26.5798 17.6598 26.9666 17.4865 27.3748 17.3348C27.5897 17.2481 27.7831 17.1831 27.9979 17.1181C28.2128 17.0314 28.4062 16.9881 28.6211 16.9231C29.0293 16.7931 29.4591 16.7064 29.8673 16.6197C30.0822 16.5764 30.2971 16.533 30.512 16.5114H30.5334ZM118.954 117.075L117.557 118.592C111.519 125.07 101.442 125.395 95.0168 119.307L84.3591 109.231L73.2502 98.7216C71.2089 96.7931 69.7907 94.4745 68.9957 91.9827C68.9527 91.8743 68.9098 91.7443 68.8883 91.636C67.8784 88.2557 67.9858 84.6154 69.2536 81.3001C69.5759 80.4117 70.0056 79.545 70.5213 78.6999C74.7758 81.8202 79.6104 84.1603 84.8533 85.5255C88.3343 86.4572 92.0086 86.9339 95.7689 86.9339C100.174 86.9339 104.428 86.2622 108.425 85.0271L118.266 94.3445C124.691 100.433 125.013 110.596 118.975 117.075H118.954ZM96.8432 18.0498C96.8432 18.0498 96.9507 17.9848 97.0151 17.9632C96.9722 17.9848 96.9077 18.0282 96.8432 18.0498ZM98.025 17.3998C98.025 17.3998 97.8961 17.4648 97.8317 17.5081C97.9821 17.4215 98.154 17.3348 98.3044 17.2698C98.1969 17.3131 98.111 17.3564 98.025 17.3998ZM100.861 16.273C100.732 16.2947 100.604 16.338 100.496 16.3814C99.83 16.5764 99.1639 16.8364 98.5407 17.1398C98.4548 17.1614 98.3903 17.2048 98.3044 17.2481C99.4647 16.6847 100.689 16.2947 101.936 16.013C101.57 16.078 101.227 16.1647 100.861 16.273ZM102.344 15.948C102.215 15.9697 102.065 15.9913 101.936 16.0347C102.237 15.9697 102.537 15.9263 102.838 15.883C102.666 15.9047 102.494 15.9263 102.323 15.9697L102.344 15.948Z" fill="url(#paint0_linear_4278_2934)"/>
<path d="M54.4922 109.317C54.4922 109.317 54.4922 109.296 54.4922 109.274L45.2312 119.155C39.1717 125.612 29.0942 125.894 22.691 119.805L21.1869 118.375C20.6282 117.855 20.0051 117.161 19.339 116.36C12.3126 107.996 0.043381 87.1723 0.0218937 96.2947C-0.0640554 120.303 19.1456 139.848 42.9535 139.935C52.8592 139.978 62.0127 136.641 69.2969 130.986C62.3565 125.547 57.1136 118.006 54.4922 109.317Z" fill="url(#paint1_linear_4278_2934)"/>
<path d="M98.9919 0.130011C98.4762 0.0866739 97.9606 0.0433369 97.4234 0.0216685C97.1655 0.0216685 96.8862 0 96.6068 0C96.306 0 95.9837 0 95.6614 0C95.4036 0 95.1457 0 94.8664 0C94.4796 0 94.0928 0 93.7276 0.0433369C93.4912 0.0433369 93.2548 0.0650054 93.0185 0.0866739C84.1657 0.606717 76.022 3.83532 69.4039 8.97075C69.4039 8.97075 69.3824 8.97075 69.361 8.99242C69.4899 9.10076 69.6188 9.2091 69.7477 9.31744C70.0271 9.53413 70.2849 9.75081 70.5643 9.98917C70.908 10.2925 71.2733 10.5959 71.6171 10.8992C72.1328 11.3543 72.627 11.831 73.1212 12.3294C73.4221 12.6111 73.7014 12.8927 73.9807 13.1961C74.5394 13.7811 75.0981 14.3879 75.6353 15.0163C75.8931 15.3196 76.1509 15.6446 76.4303 15.9697C76.86 16.5114 77.2898 17.0531 77.698 17.6165C78.8798 19.2416 79.9542 20.9534 80.8996 22.7736C81.2434 23.402 81.5657 24.0303 81.8666 24.6804C81.9525 24.8537 82.0385 25.0488 82.1244 25.2221C82.2319 25.4388 82.3178 25.6555 82.4252 25.8938C82.4252 25.9155 82.4467 25.9588 82.4682 26.0022C82.5542 26.1755 82.6186 26.3705 82.7046 26.5655C83.2847 27.9523 83.7789 29.3824 84.2302 30.8342L84.3376 30.7909H84.3591L93.5771 20.8017C93.7705 20.6067 93.9639 20.4117 94.1358 20.2167C94.5226 19.8483 94.9094 19.5016 95.3176 19.1766C95.511 19.0033 95.7259 18.8516 95.9408 18.6999C96.0052 18.6566 96.0912 18.5916 96.1556 18.5482C96.2201 18.5049 96.2845 18.4399 96.349 18.4182C96.435 18.3532 96.5209 18.3099 96.6068 18.2449C96.6713 18.2015 96.7358 18.1582 96.8002 18.1148C96.8217 18.1148 96.8432 18.0932 96.8647 18.0715C97.2515 17.8115 97.6382 17.5948 98.0465 17.3998C98.1539 17.3564 98.2399 17.2914 98.3258 17.2698C98.4118 17.2264 98.4762 17.1831 98.5622 17.1614C99.2068 16.8581 99.8514 16.6197 100.518 16.403C100.646 16.3597 100.775 16.3164 100.883 16.2947C101.248 16.1863 101.592 16.1213 101.957 16.0347C102.086 16.013 102.237 15.9697 102.365 15.948C102.537 15.9263 102.688 15.9047 102.881 15.8613C102.881 15.8613 102.903 15.8613 102.924 15.8613C102.946 15.8613 102.989 15.8613 103.032 15.8613C103.203 15.8397 103.397 15.818 103.59 15.7963C103.741 15.7963 103.87 15.7746 104.02 15.753C104.063 15.753 104.106 15.753 104.149 15.753C104.256 15.753 104.342 15.753 104.45 15.753C104.686 15.753 104.901 15.7313 105.137 15.7313C105.374 15.7313 105.632 15.7313 105.868 15.7313C106.083 15.7313 106.298 15.753 106.534 15.7746C106.792 15.7963 107.05 15.818 107.308 15.8613C107.565 15.883 107.823 15.9263 108.081 15.9697C108.167 15.9697 108.253 15.9913 108.36 16.013C111.175 16.533 113.861 17.8115 116.096 19.935C116.332 18.2015 118.137 1.88516 99.0564 0.151679L98.9919 0.130011Z" fill="url(#paint2_linear_4278_2934)"/>
<path d="M129.869 70.0108C124.497 77.0531 117.02 82.3619 108.403 85.0271L118.245 94.3445C124.669 100.433 124.992 110.596 118.954 117.075L117.557 118.592C111.519 125.07 101.442 125.395 95.0169 119.307L84.3592 109.231L73.2502 98.7216C71.2089 96.7931 69.7908 94.4745 68.9958 91.9827C68.9528 91.8743 68.9098 91.7443 68.8883 91.636C67.8784 88.2557 67.9858 84.6154 69.2536 81.3001C69.5759 80.4117 70.0057 79.545 70.5213 78.6999C70.3709 78.2448 67.728 75.5146 64.4834 74.9512C61.6901 74.4745 58.8537 75.0162 57.8438 75.883C57.6719 76.2514 57.4571 76.6197 57.2422 77.0531C57.1992 77.1398 57.1348 77.2264 57.0918 77.3348C56.4257 78.6132 55.6521 80.325 54.8571 82.7736C54.7712 83.0336 54.6852 83.2936 54.5993 83.5753C54.4918 83.8787 54.4059 84.2253 54.3199 84.5504C54.3199 84.5504 54.3199 84.5504 54.3199 84.572C54.234 84.8754 54.148 85.2221 54.0621 85.5255C53.1596 89.0358 52.6654 92.7411 52.6654 96.533C52.6654 100.975 53.3315 105.265 54.5563 109.296C57.1992 117.985 62.4851 125.525 69.447 130.964C76.7312 136.641 85.8633 140 95.7689 140C119.577 140 138.872 120.542 138.872 96.533C138.872 86.5439 135.542 77.3348 129.912 70.0108H129.869Z" fill="url(#paint3_linear_4278_2934)"/>
<path d="M85.9062 38.4182C85.8417 37.8765 85.7773 37.3348 85.6913 36.8147C85.5194 35.753 85.326 34.6912 85.0897 33.6511C84.8533 32.6544 84.617 31.6793 84.3161 30.7259V30.7042C84.3161 30.6826 84.2946 30.6392 84.2946 30.5959C83.736 29.0574 83.1988 27.714 82.6831 26.5222C82.5972 26.3272 82.5327 26.1538 82.4467 25.9588C82.4467 25.9372 82.4253 25.8938 82.4038 25.8505C82.2963 25.6121 82.2104 25.4171 82.1029 25.1788C82.017 25.0054 81.9311 24.8104 81.8451 24.6371C81.5228 23.9653 81.2005 23.3369 80.8782 22.7302C79.9112 20.9101 78.8584 19.2849 77.5691 17.5298C77.1609 16.9664 76.7526 16.4247 76.3014 15.9047C76.0435 15.5796 75.7642 15.2329 75.4849 14.9296C74.9477 14.3229 74.4535 13.7595 73.8733 13.1744C73.594 12.8711 73.2717 12.546 72.9708 12.2427C72.4981 11.766 71.9609 11.2893 71.4453 10.8342C71.1015 10.5309 70.7362 10.2275 70.3709 9.90249C70.113 9.70748 69.9196 9.49079 69.7048 9.29577C69.7048 9.29577 69.4899 9.10076 69.3825 9.01408C69.3825 9.01408 69.361 8.99242 69.3395 8.97075C69.3395 8.97075 69.318 8.97075 69.318 8.94908C69.2965 8.94908 69.1676 8.84074 69.1461 8.81907C68.9527 8.66739 68.7808 8.53738 68.5874 8.3857C67.599 7.64897 66.5891 6.95558 65.5577 6.32719C65.0206 6.00217 64.5049 5.69881 63.9677 5.39545C63.7098 5.24377 63.4305 5.09209 63.1512 4.96208C62.8933 4.83207 62.6355 4.68039 62.3561 4.55038C61.776 4.26869 61.1958 3.987 60.5942 3.70531C60.0355 3.46696 59.4983 3.2286 58.9396 3.01192H58.9182C58.3595 2.79523 57.7793 2.57855 57.1992 2.36186C56.8984 2.25352 56.619 2.16685 56.3182 2.0585C55.9959 1.95016 55.6736 1.86349 55.3513 1.75515C55.0504 1.66847 54.7496 1.5818 54.4703 1.49512C54.191 1.43012 53.9331 1.34345 53.6538 1.30011C53.1596 1.1701 52.6439 1.04009 52.1067 0.931744C51.5265 0.801733 50.9464 0.693391 50.3447 0.585049C50.0439 0.541712 49.7431 0.476706 49.4637 0.433369C48.9695 0.368364 48.4753 0.303359 47.9811 0.238353C47.5729 0.195016 47.1646 0.151679 46.7564 0.108342C46.5845 0.108342 46.3911 0.0866739 46.2192 0.0650054C45.1233 0.0216685 43.9845 0 42.8672 0C42.5663 0 42.287 0 41.9862 0C41.6209 0 41.2556 0.0216685 40.8688 0.0433369C40.568 0.0433369 40.2672 0.0650054 39.9664 0.0866739C22.9055 1.27844 8.59492 12.5244 2.79335 27.9957C2.59996 28.5374 2.40658 29.0791 2.21319 29.6425C2.12724 29.9242 2.04129 30.2059 1.95534 30.4659C1.78345 31.0293 1.63303 31.5926 1.48262 32.156C1.39667 32.4377 1.33221 32.7194 1.26775 33.0011C1.05288 33.8895 0.859492 34.7996 0.687593 35.7313C0.687593 35.7313 0.687593 35.7313 0.687593 35.753C0.601644 36.2947 0.515695 36.8364 0.429746 37.3781C0.343797 37.9198 0.300822 38.4615 0.23636 39.0249C0.0644619 40.4984 0 41.9935 0 43.5103C0 43.9003 0 44.2687 0 44.6587C0 45.2004 0.0429746 45.7638 0.0859492 46.3055C0.107436 46.6089 0.128924 46.9122 0.150411 47.2156C0.23636 48.1257 0.343797 49.0358 0.47272 49.9242C0.601644 50.8126 0.773543 51.7226 0.945441 52.5894C1.05288 53.0878 1.1818 53.5861 1.31072 54.1062C2.79335 59.9567 5.43629 65.3521 8.98169 69.9892C9.00318 69.9675 9.02466 69.9458 9.04615 69.9025C14.375 62.9036 21.7881 57.6165 30.3401 54.9296L20.5204 45.6555C14.1172 39.5883 13.7519 29.4258 19.7468 22.9469L21.1435 21.4301C23.5716 18.8082 26.6442 17.2048 29.8673 16.6197C30.0822 16.5764 30.2971 16.533 30.512 16.5114C30.7483 16.468 30.9847 16.4464 31.221 16.4247C31.4789 16.403 31.7152 16.3814 31.9731 16.3814C32.2954 16.3814 32.6177 16.3597 32.9185 16.3814C33.1764 16.3814 33.4127 16.3814 33.6491 16.3814C33.864 16.3814 34.0574 16.3814 34.2722 16.4247C37.7102 16.7281 41.0622 18.1365 43.7911 20.7151L54.4273 30.7909L65.4933 41.2784C67.5131 43.2069 68.9312 45.5471 69.7263 48.039C70.8436 51.506 70.7791 55.2763 69.4684 58.6782C69.1461 59.5666 68.7379 60.4334 68.2222 61.2568V61.2784C68.2222 61.3001 70.951 64.377 74.1312 64.9187C76.903 65.3954 80.0402 64.9187 81.0501 64.052C81.1575 63.8353 81.2864 63.6186 81.4154 63.3803C81.5013 63.2069 81.6087 63.0119 81.6947 62.8169C82.4897 61.2784 83.4781 59.1766 84.4236 55.8397C84.5095 55.5363 84.5955 55.2329 84.6814 54.9079C84.7244 54.7562 84.7674 54.5829 84.8103 54.4312C84.9178 53.9978 85.0252 53.5645 85.1327 53.1094C85.2401 52.6761 85.326 52.221 85.412 51.766C85.7558 49.9675 85.9921 48.104 86.0996 46.2405C86.164 45.2871 86.1855 44.312 86.1855 43.3369C86.1855 41.6901 86.0781 40.0433 85.9062 38.4399V38.4182Z" fill="url(#paint4_linear_4278_2934)"/>
<defs>
<linearGradient id="paint0_linear_4278_2934" x1="0" y1="70.0108" x2="138.829" y2="70.0108" gradientUnits="userSpaceOnUse">
<stop offset="0.16" stop-color="#3E6C46"/>
<stop offset="1" stop-color="#6FAD60"/>
</linearGradient>
<linearGradient id="paint1_linear_4278_2934" x1="81.2838" y1="82.8235" x2="-19.3372" y2="146.547" gradientUnits="userSpaceOnUse">
<stop stop-color="#2B192E"/>
<stop offset="0.09" stop-color="#2C1F30"/>
<stop offset="0.21" stop-color="#303235"/>
<stop offset="0.35" stop-color="#37503F"/>
<stop offset="0.47" stop-color="#3E6F49"/>
</linearGradient>
<linearGradient id="paint2_linear_4278_2934" x1="39.5185" y1="44.8015" x2="159.786" y2="-23.227" gradientUnits="userSpaceOnUse">
<stop offset="0.33" stop-color="#355635"/>
<stop offset="0.36" stop-color="#395C38" stop-opacity="0.92"/>
<stop offset="0.42" stop-color="#456D41" stop-opacity="0.71"/>
<stop offset="0.48" stop-color="#598A50" stop-opacity="0.35"/>
<stop offset="0.53" stop-color="#6DA75F" stop-opacity="0"/>
</linearGradient>
<linearGradient id="paint3_linear_4278_2934" x1="82.103" y1="57.5298" x2="111.046" y2="139.089" gradientUnits="userSpaceOnUse">
<stop stop-color="#2B192E"/>
<stop offset="0.83" stop-color="#6FAD60"/>
</linearGradient>
<linearGradient id="paint4_linear_4278_2934" x1="49.353" y1="86.1119" x2="36.5031" y2="0.492708" gradientUnits="userSpaceOnUse">
<stop stop-color="#2B192E"/>
<stop offset="0.53" stop-color="#407243"/>
</linearGradient>
</defs>
</svg>
